<svg width="95" height="235" viewBox="0 0 95 235" fill="none" xmlns="http://www.w3.org/2000/svg">
<path d="M88.5 54.75H91.25L91.5 55L92.25 69.5L93.5 95.25L94 110L94.5 133V175L94 203L93.5 222.5L93.25 226.5L92.5 227.25L87.5 229.25L82.25 230.75L76.25 232L67.75 233.25L58 234.25L54.5 234.5H50.25L49.25 234V225.25L50 207.25L50.5 185.5L50.75 166V153L50.5 133.75L49.75 110.75L49.25 99.75L48.75 85L47.75 65.5L47.5 57.5L47.75 57.25L62.25 56.25L83 55L88.5 54.75Z" fill="#FFFFFF"/>
<path d="M38.25 58.75L38.75 59.25L39.25 76L40.25 95V97.75L39.25 98.5L33.5 101.25L15.5 110.25L10.75 112.75L8.25 114H7.25L6.5 111.5L2.75 94L0.75 83.5V82L22 68.5L28.5 64.25L34 61L37.5 59L38.25 58.75Z" fill="#FFFFFF"/>
<path d="M72.25 0.5H77L80.25 1.5L82.5 3L84.5 5L85.75 7.5L86 8.5V13.5L85 16L83.25 18.75L81.75 18.5L78.75 17.5L77.25 17.25H72.75L70 18.25L68.75 19.5L68.25 20.75V23L69.5 26.25L70.5 27.75H72.5L79 26.75L81.5 26.5H92L92.75 26.75V28.75L90.75 35L88.5 40.25L86.5 43.75L85.5 44.25L73.25 45.25L64.25 46.5L54.75 48.25L52.5 48.75H51.25L50.5 47L49.5 41.5L49.25 38V35.25L49.75 34L57.5 31L59 30.5L58.75 29.25L56.75 26.5L55 22.5L54.75 21V18.5L55.5 14.5L56.75 11.5L58.75 8.75L62.25 5.25L65.75 2.75L69 1.25L72.25 0.5Z" fill="#FFFFFF"/>
</svg>
