<svg width="119" height="101" viewBox="0 0 119 101" fill="none" xmlns="http://www.w3.org/2000/svg">
<path d="M79.69 32.26C71.3 32.31 62.78 31.92 54.8 29.7C46.82 27.48 39.8 23.31 33.37 18.44C29.17 15.26 25.37 12.74 19.91 13.12C14.581 13.4031 9.48385 15.3908 5.37 18.79C-1.56 24.86 -0.51 36.08 2.26 44C6.42 55.86 19.1 64.12 29.87 69.49C42.32 75.71 56 79.32 69.7 81.4C81.76 83.23 97.15 84.55 107.56 76.71C117.13 69.5 119.75 53.04 117.41 41.92C116.841 38.6361 115.091 35.6735 112.49 33.59C105.77 28.67 95.75 31.96 88.2 32.12C85.4 32.18 82.55 32.25 79.69 32.26Z" fill="#F2F2F2"/>
<path d="M30.6201 75.04V79.35" stroke="#CFCFCF" stroke-linecap="round" stroke-linejoin="round"/>
<path d="M28.47 77.2H32.78" stroke="#CFCFCF" stroke-linecap="round" stroke-linejoin="round"/>
<path d="M102.64 22.01V26.32" stroke="#CFCFCF" stroke-linecap="round" stroke-linejoin="round"/>
<path d="M100.49 24.17H104.8" stroke="#CFCFCF" stroke-linecap="round" stroke-linejoin="round"/>
<path d="M56.8599 2.85002C57.4011 2.85002 57.8399 2.41126 57.8399 1.87002C57.8399 1.32878 57.4011 0.890015 56.8599 0.890015C56.3186 0.890015 55.8799 1.32878 55.8799 1.87002C55.8799 2.41126 56.3186 2.85002 56.8599 2.85002Z" fill="#CFCFCF"/>
<path d="M59.5801 100.88C79.8821 100.88 96.3401 99.8548 96.3401 98.59C96.3401 97.3253 79.8821 96.3 59.5801 96.3C39.2781 96.3 22.8201 97.3253 22.8201 98.59C22.8201 99.8548 39.2781 100.88 59.5801 100.88Z" fill="#F2F2F2"/>
<path d="M59.17 83.34C75.8324 83.34 89.34 69.8324 89.34 53.17C89.34 36.5076 75.8324 23 59.17 23C42.5076 23 29 36.5076 29 53.17C29 69.8324 42.5076 83.34 59.17 83.34Z" fill="white" stroke="#BABABA" stroke-linecap="round" stroke-linejoin="round"/>
<path d="M49.74 65.2101C50.2078 63.0569 51.3984 61.1286 53.1139 59.7458C54.8295 58.363 56.9665 57.6089 59.17 57.6089C61.3734 57.6089 63.5105 58.363 65.226 59.7458C66.9416 61.1286 68.1322 63.0569 68.6 65.2101" stroke="#BABABA" stroke-linecap="round" stroke-linejoin="round"/>
<path d="M69.82 53.96C70.56 53.96 71.16 53.3601 71.16 52.62C71.16 51.88 70.56 51.28 69.82 51.28C69.0799 51.28 68.48 51.88 68.48 52.62C68.48 53.3601 69.0799 53.96 69.82 53.96Z" fill="#BABABA"/>
<path d="M48.5199 53.96C49.26 53.96 49.8599 53.3601 49.8599 52.62C49.8599 51.88 49.26 51.28 48.5199 51.28C47.7799 51.28 47.1799 51.88 47.1799 52.62C47.1799 53.3601 47.7799 53.96 48.5199 53.96Z" fill="#BABABA"/>
</svg>
