<svg width="119" height="104" viewBox="0 0 119 104" fill="none" xmlns="http://www.w3.org/2000/svg">
<path d="M16.1099 76.1299C16.6511 76.1299 17.0899 75.6912 17.0899 75.1499C17.0899 74.6087 16.6511 74.1699 16.1099 74.1699C15.5686 74.1699 15.1299 74.6087 15.1299 75.1499C15.1299 75.6912 15.5686 76.1299 16.1099 76.1299Z" fill="#CFCFCF"/>
<path d="M79.66 35.1701C71.2899 35.1701 62.77 34.8301 54.7999 32.6101C46.9799 30.4401 39.7999 26.2301 33.3999 21.3601C29.2099 18.1901 25.3999 15.6601 19.9599 16.0401C14.638 16.3281 9.54874 18.3154 5.43995 21.7101C-1.48005 27.7701 -0.440053 39.0001 2.32995 46.8601C6.48995 58.7301 19.1499 67.0001 29.9099 72.3501C42.34 78.5601 56 82.1701 69.6899 84.2401C81.6899 86.0701 97.1099 87.3901 107.51 79.5601C117.06 72.3501 119.68 55.9101 117.34 44.8101C116.772 41.5309 115.026 38.5721 112.43 36.4901C105.72 31.5801 95.7099 34.8601 88.1699 35.0201C85.3699 35.0801 82.52 35.1501 79.66 35.1701Z" fill="#F2F2F2"/>
<path d="M62.2299 85.4799C68.4652 85.4799 73.5199 80.4252 73.5199 74.1899C73.5199 67.9546 68.4652 62.8999 62.2299 62.8999C55.9946 62.8999 50.9399 67.9546 50.9399 74.1899C50.9399 80.4252 55.9946 85.4799 62.2299 85.4799Z" fill="#D2D2D2"/>
<path d="M50.5636 3.70608C51.1878 3.5669 51.8333 3.55202 52.4632 3.66231C53.0932 3.77259 53.6953 4.00588 54.2351 4.34884C54.7749 4.69181 55.2418 5.13773 55.6093 5.66116C55.9768 6.18459 56.2375 6.77528 56.3767 7.39948L58.1809 15.4908L48.6548 17.6149L46.8506 9.52357C46.7111 8.89772 46.6965 8.25047 46.8077 7.61896C46.9189 6.98746 47.1538 6.38414 47.4988 5.84362C47.8437 5.3031 48.2921 4.83603 48.818 4.46922C49.3439 4.1024 49.9371 3.84306 50.5636 3.70608Z" fill="white" stroke="#BABABA" stroke-linecap="round" stroke-linejoin="round"/>
<path d="M95.0701 67.1801L37.1801 80.0801C36.8205 80.1608 36.4461 80.1464 36.0938 80.0382C35.7415 79.9301 35.4235 79.732 35.1711 79.4634C34.9187 79.1949 34.7407 78.8652 34.6546 78.5069C34.5685 78.1486 34.5773 77.774 34.6801 77.4201L34.9201 76.5901C36.9201 69.5001 38.6601 61.6901 37.0601 54.4901L33.6401 39.1301C30.7601 26.2201 38.5001 13.0701 51.3401 9.90011C54.4711 9.12285 57.7259 8.9797 60.9131 9.47911C64.1002 9.97852 67.1553 11.1104 69.8984 12.8081C72.6416 14.5058 75.0175 16.7351 76.8863 19.3647C78.7551 21.9943 80.079 24.9712 80.7801 28.1201L84.3101 44.0001C85.9201 51.2001 90.7801 57.5601 95.6401 63.1001L96.2101 63.7501C96.4409 64.0285 96.597 64.361 96.6637 64.7164C96.7305 65.0717 96.7057 65.4382 96.5916 65.7814C96.4776 66.1245 96.2781 66.4329 96.0119 66.6776C95.7457 66.9224 95.4216 67.0953 95.0701 67.1801Z" fill="white" stroke="#BABABA" stroke-linecap="round" stroke-linejoin="round"/>
<path d="M52.25 57.2799C52.2342 54.9442 53.0189 52.6736 54.4735 50.8461C55.9282 49.0186 57.9649 47.7445 60.2446 47.2359C62.5243 46.7274 64.9094 47.015 67.0028 48.0511C69.0963 49.0871 70.7716 50.8089 71.75 52.9299" stroke="#BABABA" stroke-linecap="round" stroke-linejoin="round"/>
<path d="M70.1099 41.05C70.8942 41.05 71.5299 40.4142 71.5299 39.63C71.5299 38.8457 70.8942 38.21 70.1099 38.21C69.3257 38.21 68.6899 38.8457 68.6899 39.63C68.6899 40.4142 69.3257 41.05 70.1099 41.05Z" fill="#BABABA"/>
<path d="M48.0899 45.9601C48.8742 45.9601 49.5099 45.3244 49.5099 44.5401C49.5099 43.7559 48.8742 43.1201 48.0899 43.1201C47.3057 43.1201 46.6699 43.7559 46.6699 44.5401C46.6699 45.3244 47.3057 45.9601 48.0899 45.9601Z" fill="#BABABA"/>
<path d="M74.5701 2.19999C75.1113 2.19999 75.5501 1.76123 75.5501 1.21999C75.5501 0.678751 75.1113 0.23999 74.5701 0.23999C74.0289 0.23999 73.5901 0.678751 73.5901 1.21999C73.5901 1.76123 74.0289 2.19999 74.5701 2.19999Z" fill="#CFCFCF"/>
<path d="M16.1099 76.1299C16.6511 76.1299 17.0899 75.6912 17.0899 75.1499C17.0899 74.6087 16.6511 74.1699 16.1099 74.1699C15.5686 74.1699 15.1299 74.6087 15.1299 75.1499C15.1299 75.6912 15.5686 76.1299 16.1099 76.1299Z" fill="#CFCFCF"/>
<path d="M101.65 24.8899V29.1899" stroke="#BABABA" stroke-linecap="round" stroke-linejoin="round"/>
<path d="M99.5 27.04H103.8" stroke="#BABABA" stroke-linecap="round" stroke-linejoin="round"/>
<path d="M103.61 89.6299V93.9299" stroke="#BABABA" stroke-linecap="round" stroke-linejoin="round"/>
<path d="M101.46 91.78H105.76" stroke="#BABABA" stroke-linecap="round" stroke-linejoin="round"/>
<path d="M28.4299 8.59009V12.8901" stroke="#BABABA" stroke-linecap="round" stroke-linejoin="round"/>
<path d="M26.28 10.74H30.58" stroke="#BABABA" stroke-linecap="round" stroke-linejoin="round"/>
<path d="M59.5801 103.7C79.8545 103.7 96.2901 102.675 96.2901 101.41C96.2901 100.145 79.8545 99.1201 59.5801 99.1201C39.3057 99.1201 22.8701 100.145 22.8701 101.41C22.8701 102.675 39.3057 103.7 59.5801 103.7Z" fill="#F2F2F2"/>
<path d="M94.6499 22.4499C94.6473 25.4912 93.438 28.4071 91.2875 30.5575C89.1371 32.708 86.2212 33.9173 83.1799 33.9199C82.8058 33.9199 82.4319 33.8999 82.0599 33.8599L78.6599 39.4099L77.5999 32.4599C75.8335 31.4763 74.3584 30.0433 73.3242 28.306C72.2899 26.5686 71.7333 24.5888 71.7107 22.5671C71.6881 20.5453 72.2002 18.5536 73.1954 16.7935C74.1905 15.0335 75.6331 13.5678 77.3771 12.5449C79.1211 11.522 81.1046 10.9783 83.1264 10.9689C85.1482 10.9594 87.1366 11.4846 88.8901 12.4911C90.6436 13.4977 92.0999 14.9499 93.1114 16.7005C94.1229 18.4512 94.6537 20.4381 94.6499 22.4599V22.4499Z" fill="white" stroke="#BABABA" stroke-linecap="round" stroke-linejoin="round"/>
<path d="M78.2801 23.61C78.9208 23.61 79.4401 23.0907 79.4401 22.45C79.4401 21.8094 78.9208 21.29 78.2801 21.29C77.6395 21.29 77.1201 21.8094 77.1201 22.45C77.1201 23.0907 77.6395 23.61 78.2801 23.61Z" fill="#D2D2D2" stroke="#D2D2D2" stroke-miterlimit="10"/>
<path d="M83.18 23.61C83.8207 23.61 84.34 23.0907 84.34 22.45C84.34 21.8094 83.8207 21.29 83.18 21.29C82.5394 21.29 82.02 21.8094 82.02 22.45C82.02 23.0907 82.5394 23.61 83.18 23.61Z" fill="#D2D2D2" stroke="#D2D2D2" stroke-miterlimit="10"/>
<path d="M88.0799 23.61C88.7206 23.61 89.2399 23.0907 89.2399 22.45C89.2399 21.8094 88.7206 21.29 88.0799 21.29C87.4393 21.29 86.9199 21.8094 86.9199 22.45C86.9199 23.0907 87.4393 23.61 88.0799 23.61Z" fill="#D2D2D2" stroke="#D2D2D2" stroke-miterlimit="10"/>
</svg>
