<svg width="119" height="104" viewBox="0 0 119 104" fill="none" xmlns="http://www.w3.org/2000/svg">
<path d="M59.18 81.8301C59.7212 81.8301 60.16 81.3914 60.16 80.8501C60.16 80.3089 59.7212 79.8701 59.18 79.8701C58.6387 79.8701 58.2 80.3089 58.2 80.8501C58.2 81.3914 58.6387 81.8301 59.18 81.8301Z" fill="#CFCFCF"/>
<path d="M30.71 8.05005V12.35" stroke="#BABABA" stroke-linecap="round" stroke-linejoin="round"/>
<path d="M28.55 10.2H32.8601" stroke="#BABABA" stroke-linecap="round" stroke-linejoin="round"/>
<path d="M79.66 35.1701C71.2899 35.1701 62.77 34.8301 54.7999 32.6101C46.9799 30.4401 39.7999 26.2301 33.3999 21.3601C29.2099 18.1901 25.3999 15.6601 19.9599 16.0401C14.638 16.3281 9.54874 18.3154 5.43995 21.7101C-1.48005 27.7701 -0.440053 39.0001 2.32995 46.8601C6.48995 58.7301 19.1499 67.0001 29.9099 72.3501C42.34 78.5601 56 82.1701 69.6899 84.2401C81.6899 86.0701 97.1099 87.3901 107.51 79.5601C117.06 72.3501 119.68 55.9101 117.34 44.8101C116.772 41.5309 115.026 38.5721 112.43 36.4901C105.72 31.5801 95.7099 34.8601 88.1699 35.0201C85.3699 35.0801 82.52 35.1501 79.66 35.1701Z" fill="#F2F2F2"/>
<path d="M66.1199 2.18998C66.6611 2.18998 67.0999 1.75122 67.0999 1.20998C67.0999 0.668741 66.6611 0.22998 66.1199 0.22998C65.5787 0.22998 65.1399 0.668741 65.1399 1.20998C65.1399 1.75122 65.5787 2.18998 66.1199 2.18998Z" fill="#CFCFCF"/>
<path d="M15.2 78.5V82.8" stroke="#BABABA" stroke-linecap="round" stroke-linejoin="round"/>
<path d="M13.05 80.6499H17.35" stroke="#BABABA" stroke-linecap="round" stroke-linejoin="round"/>
<path d="M59.5801 103.7C79.8545 103.7 96.2901 102.675 96.2901 101.41C96.2901 100.145 79.8545 99.1201 59.5801 99.1201C39.3057 99.1201 22.8701 100.145 22.8701 101.41C22.8701 102.675 39.3057 103.7 59.5801 103.7Z" fill="#F2F2F2"/>
<path d="M89.0899 76.8801H25.6799C25.2555 76.8798 24.8363 76.7873 24.4512 76.6091C24.0661 76.4308 23.7243 76.1711 23.4495 75.8477C23.1746 75.5244 22.9733 75.1452 22.8594 74.7364C22.7456 74.3276 22.7218 73.899 22.7899 73.4801L30.8999 24.3001C31.0095 23.6156 31.3598 22.9928 31.8878 22.5436C32.4157 22.0945 33.0867 21.8485 33.7799 21.8501H97.1899C97.6139 21.8501 98.0329 21.9425 98.4176 22.1209C98.8024 22.2992 99.1436 22.5592 99.4177 22.8828C99.6918 23.2064 99.8921 23.5857 100.005 23.9946C100.117 24.4034 100.14 24.8318 100.07 25.2501L91.9999 74.4301C91.8876 75.1188 91.5324 75.7446 90.9986 76.194C90.4648 76.6434 89.7877 76.8868 89.0899 76.8801Z" fill="#D2D2D2"/>
<path d="M89.8713 20.5639L52.2325 3.75874C51.123 3.26339 49.8221 3.76122 49.3267 4.87068L37.3976 31.5885C36.9022 32.698 37.4001 33.999 38.5095 34.4943L76.1483 51.2994C77.2578 51.7948 78.5587 51.297 79.0541 50.1875L90.9832 23.4696C91.4786 22.3602 90.9807 21.0592 89.8713 20.5639Z" fill="white" stroke="#BABABA" stroke-linecap="round" stroke-linejoin="round"/>
<path d="M57.75 25.74C58.7407 24.3499 60.1816 23.345 61.8285 22.8957C63.4754 22.4464 65.2269 22.5803 66.7864 23.2747C68.3458 23.9691 69.6172 25.1813 70.3852 26.7058C71.1531 28.2304 71.3703 29.9736 71 31.64" stroke="#BABABA" stroke-width="0.68" stroke-linecap="round" stroke-linejoin="round"/>
<path d="M75.75 24.2299C76.3188 24.2299 76.78 23.7688 76.78 23.1999C76.78 22.6311 76.3188 22.1699 75.75 22.1699C75.1811 22.1699 74.72 22.6311 74.72 23.1999C74.72 23.7688 75.1811 24.2299 75.75 24.2299Z" fill="#BABABA"/>
<path d="M60.83 17.57C61.3989 17.57 61.86 17.1089 61.86 16.54C61.86 15.9712 61.3989 15.51 60.83 15.51C60.2612 15.51 59.8 15.9712 59.8 16.54C59.8 17.1089 60.2612 17.57 60.83 17.57Z" fill="#BABABA"/>
<path d="M88.81 76.86H25.09C24.3147 76.8574 23.572 76.5475 23.0247 75.9983C22.4773 75.4491 22.17 74.7054 22.17 73.93V29C22.1607 28.6102 22.2293 28.2225 22.3717 27.8596C22.5142 27.4966 22.7276 27.1657 22.9996 26.8863C23.2715 26.607 23.5965 26.3846 23.9554 26.2324C24.3144 26.0802 24.7001 26.0012 25.09 26H48.3C48.8386 26.002 49.3662 26.1524 49.8249 26.4346C50.2836 26.7169 50.6556 27.1201 50.9 27.6L54.21 34.08C54.4536 34.5606 54.8254 34.9645 55.2843 35.2468C55.7432 35.5292 56.2712 35.6791 56.81 35.68H88.81C89.5845 35.68 90.3272 35.9876 90.8748 36.5352C91.4224 37.0829 91.73 37.8256 91.73 38.6V73.93C91.73 74.7054 91.4227 75.4491 90.8754 75.9983C90.3281 76.5475 89.5854 76.8574 88.81 76.86Z" fill="white" stroke="#BABABA" stroke-linecap="round" stroke-linejoin="round"/>
<path d="M78.9999 37.21C75.3188 37.208 71.7197 38.2978 68.658 40.3415C65.5963 42.3851 63.2094 45.2909 61.7994 48.6913C60.3893 52.0917 60.0193 55.8338 60.7363 59.4445C61.4532 63.0551 63.2248 66.372 65.8271 68.9757C68.4294 71.5793 71.7453 73.3528 75.3556 74.0716C78.9658 74.7905 82.7082 74.4226 86.1093 73.0143C89.5104 71.6061 92.4175 69.2208 94.4628 66.1602C96.5082 63.0996 97.5999 59.5011 97.5999 55.82C97.5999 50.886 95.6406 46.154 92.1527 42.6642C88.6648 39.1745 83.9338 37.2126 78.9999 37.21Z" fill="white" stroke="#BABABA" stroke-linecap="round" stroke-linejoin="round"/>
<path d="M92.24 69.3201L97.2 74.2801" stroke="#BABABA" stroke-linecap="round" stroke-linejoin="round"/>
<path d="M96.6393 71.8702L95.0984 73.4822C94.4076 74.2048 94.4334 75.3505 95.156 76.0413L108.529 88.8249C109.251 89.5157 110.397 89.4899 111.088 88.7673L112.629 87.1553C113.319 86.4328 113.294 85.287 112.571 84.5963L99.1984 71.8126C98.4758 71.1218 97.3301 71.1476 96.6393 71.8702Z" fill="#D2D2D2"/>
<path d="M106.54 1.20996V5.51996" stroke="#BABABA" stroke-linecap="round" stroke-linejoin="round"/>
<path d="M104.38 3.37012H108.69" stroke="#BABABA" stroke-linecap="round" stroke-linejoin="round"/>
</svg>
