<svg width="119" height="112" viewBox="0 0 119 112" fill="none" xmlns="http://www.w3.org/2000/svg">
<path d="M79.66 43.42C71.2899 43.42 62.77 43.08 54.7999 40.86C46.9799 38.69 39.7999 34.48 33.3999 29.61C29.2099 26.44 25.3999 23.92 19.9599 24.3C14.6335 24.5916 9.54234 26.5901 5.43995 30C-1.48005 36 -0.440053 47.23 2.32995 55.12C6.48995 67 19.1499 75.23 29.9099 80.61C42.34 86.82 56 90.42 69.6899 92.5C81.6899 94.32 97.1099 95.65 107.51 87.81C117.06 80.61 119.68 64.17 117.34 53.07C116.773 49.7879 115.027 46.8257 112.43 44.74C105.72 39.84 95.7099 43.11 88.1699 43.28C85.3699 43.34 82.52 43.41 79.66 43.42Z" fill="#F2F2F2"/>
<path d="M59.18 111.95C79.4543 111.95 95.89 110.925 95.89 109.66C95.89 108.395 79.4543 107.37 59.18 107.37C38.9056 107.37 22.47 108.395 22.47 109.66C22.47 110.925 38.9056 111.95 59.18 111.95Z" fill="#F2F2F2"/>
<path d="M81.19 2.62004C81.7312 2.62004 82.17 2.18127 82.17 1.64003C82.17 1.09879 81.7312 0.660034 81.19 0.660034C80.6487 0.660034 80.21 1.09879 80.21 1.64003C80.21 2.18127 80.6487 2.62004 81.19 2.62004Z" fill="#CFCFCF"/>
<path d="M17.5401 86.2C18.0813 86.2 18.5201 85.7612 18.5201 85.22C18.5201 84.6788 18.0813 84.24 17.5401 84.24C16.9988 84.24 16.5601 84.6788 16.5601 85.22C16.5601 85.7612 16.9988 86.2 17.5401 86.2Z" fill="#CFCFCF"/>
<path d="M31.96 2.04996C32.5012 2.04996 32.94 1.6112 32.94 1.06997C32.94 0.528726 32.5012 0.0899658 31.96 0.0899658C31.4187 0.0899658 30.98 0.528726 30.98 1.06997C30.98 1.6112 31.4187 2.04996 31.96 2.04996Z" fill="#CFCFCF"/>
<path d="M109.79 38.7799C110.331 38.7799 110.77 38.3412 110.77 37.7999C110.77 37.2587 110.331 36.8199 109.79 36.8199C109.249 36.8199 108.81 37.2587 108.81 37.7999C108.81 38.3412 109.249 38.7799 109.79 38.7799Z" fill="#CFCFCF"/>
<path d="M55.4199 93.1899V97.4999" stroke="#BABABA" stroke-linecap="round" stroke-linejoin="round"/>
<path d="M53.26 95.35H57.57" stroke="#BABABA" stroke-linecap="round" stroke-linejoin="round"/>
<path d="M99.02 20.02V24.33" stroke="#BABABA" stroke-linecap="round" stroke-linejoin="round"/>
<path d="M96.8601 22.1801H101.17" stroke="#BABABA" stroke-linecap="round" stroke-linejoin="round"/>
<path d="M49.6001 13.95V18.2599" stroke="#BABABA" stroke-linecap="round" stroke-linejoin="round"/>
<path d="M47.45 16.1H51.75" stroke="#BABABA" stroke-linecap="round" stroke-linejoin="round"/>
<path d="M24.8301 46.2201C32.1258 46.2201 38.0401 40.3057 38.0401 33.01C38.0401 25.7144 32.1258 19.8 24.8301 19.8C17.5344 19.8 11.6201 25.7144 11.6201 33.01C11.6201 40.3057 17.5344 46.2201 24.8301 46.2201Z" fill="white" stroke="#BABABA" stroke-linecap="round" stroke-linejoin="round"/>
<path d="M24.83 42.63C30.1429 42.63 34.45 38.323 34.45 33.01C34.45 27.697 30.1429 23.39 24.83 23.39C19.517 23.39 15.21 27.697 15.21 33.01C15.21 38.323 19.517 42.63 24.83 42.63Z" fill="#D2D2D2"/>
<path d="M24.57 39.21L24.51 37.69C23.6957 37.7184 22.8893 37.5211 22.18 37.12L22.5 36.12C23.1599 36.5168 23.9204 36.7148 24.69 36.69C25.76 36.69 26.46 36 26.42 35.14C26.38 34.28 25.78 33.82 24.65 33.42C23.09 32.88 22.12 32.22 22.07 30.91C22.0556 30.2969 22.2697 29.7003 22.6708 29.2364C23.0719 28.7725 23.6313 28.4743 24.24 28.4L24.18 26.88H25.11L25.17 28.34C25.8642 28.3169 26.5527 28.4718 27.17 28.79L26.83 29.79C26.245 29.4729 25.5848 29.3208 24.92 29.35C23.76 29.4 23.35 30.11 23.37 30.71C23.37 31.49 23.98 31.86 25.31 32.35C26.88 32.92 27.69 33.67 27.75 35.01C27.7628 35.6549 27.5373 36.2819 27.1166 36.7709C26.6959 37.2598 26.1096 37.5764 25.47 37.66L25.53 39.23L24.57 39.21Z" fill="white"/>
<path d="M88 75.41L38.93 87.73C37.9572 87.973 36.9419 87.9913 35.961 87.7833C34.9802 87.5753 34.0596 87.1466 33.2692 86.5297C32.4788 85.9128 31.8393 85.1239 31.3993 84.223C30.9594 83.322 30.7305 82.3326 30.73 81.33V28.38L86.12 14.48C86.6916 14.3372 87.2882 14.3265 87.8646 14.4487C88.4409 14.5709 88.9819 14.8227 89.4465 15.1851C89.911 15.5475 90.2869 16.0109 90.5457 16.5402C90.8045 17.0695 90.9393 17.6508 90.94 18.24V71.66C90.9385 72.5234 90.6483 73.3616 90.1156 74.0411C89.5828 74.7206 88.8381 75.2025 88 75.41Z" fill="#D2D2D2"/>
<path d="M30.73 28.73H100C100.508 28.73 101.011 28.8301 101.481 29.0246C101.951 29.2191 102.377 29.5041 102.736 29.8635C103.096 30.2228 103.381 30.6495 103.575 31.119C103.77 31.5885 103.87 32.0918 103.87 32.6V86.26C103.87 86.7682 103.77 87.2714 103.575 87.741C103.381 88.2105 103.096 88.6371 102.736 88.9965C102.377 89.3559 101.951 89.6409 101.481 89.8354C101.011 90.0299 100.508 90.13 100 90.13H35.39C34.1541 90.13 32.9688 89.639 32.0949 88.7651C31.2209 87.8912 30.73 86.7059 30.73 85.47V28.73Z" fill="white" stroke="#BABABA" stroke-linecap="round" stroke-linejoin="round"/>
<path d="M94.1201 63.71C96.4839 63.71 98.4001 61.7938 98.4001 59.43C98.4001 57.0662 96.4839 55.15 94.1201 55.15C91.7563 55.15 89.8401 57.0662 89.8401 59.43C89.8401 61.7938 91.7563 63.71 94.1201 63.71Z" fill="#D2D2D2"/>
</svg>
